<svg width="273" height="41" viewBox="0 0 273 41" fill="none" xmlns="http://www.w3.org/2000/svg">
<path d="M25.9388 33.6513L29.502 40.9079H0L20.1608 0.453979L29.502 18.5302L21.1676 18.6645L20.1608 16.7832L17.2057 22.8988H20.5635L23.5206 29.2828H13.7768L11.8265 33.7185L25.9388 33.6513Z" fill="#4BABFF"/>
<path d="M23.5205 23.1001H31.3831L40.3196 40.5723L32.6603 40.9079L23.5205 23.1001Z" fill="#000080"/>
<path d="M49.0318 13.22H54.4238V15.236H49.0318V13.22ZM49.2238 17.828H55.3198V19.908H46.6478V8.70796H55.1118V10.788H49.2238V17.828ZM62.1859 19.908L57.3539 8.70796H60.1539L64.3779 18.628H62.7299L67.018 8.70796H69.594L64.7459 19.908H62.1859ZM74.5131 13.22H79.9051V15.236H74.5131V13.22ZM74.7051 17.828H80.8011V19.908H72.1291V8.70796H80.5931V10.788H74.7051V17.828ZM84.4634 19.908V8.70796H89.3114C90.3141 8.70796 91.1781 8.87329 91.9034 9.20396C92.6288 9.52396 93.1888 9.98796 93.5834 10.596C93.9781 11.204 94.1754 11.9293 94.1754 12.772C94.1754 13.604 93.9781 14.324 93.5834 14.932C93.1888 15.5293 92.6288 15.988 91.9034 16.308C91.1781 16.628 90.3141 16.788 89.3114 16.788H85.9034L87.0554 15.652V19.908H84.4634ZM91.5834 19.908L88.7834 15.844H91.5514L94.3834 19.908H91.5834ZM87.0554 15.94L85.9034 14.724H89.1674C89.9674 14.724 90.5648 14.5533 90.9594 14.212C91.3541 13.86 91.5514 13.38 91.5514 12.772C91.5514 12.1533 91.3541 11.6733 90.9594 11.332C90.5648 10.9906 89.9674 10.82 89.1674 10.82H85.9034L87.0554 9.58796V15.94ZM97.8291 19.908V8.70796H102.677C103.68 8.70796 104.544 8.87329 105.269 9.20396C105.994 9.52396 106.554 9.98796 106.949 10.596C107.344 11.204 107.541 11.9293 107.541 12.772C107.541 13.604 107.344 14.324 106.949 14.932C106.554 15.5293 105.994 15.988 105.269 16.308C104.544 16.628 103.68 16.788 102.677 16.788H99.2691L100.421 15.652V19.908H97.8291ZM104.949 19.908L102.149 15.844H104.917L107.749 19.908H104.949ZM100.421 15.94L99.2691 14.724H102.533C103.333 14.724 103.93 14.5533 104.325 14.212C104.72 13.86 104.917 13.38 104.917 12.772C104.917 12.1533 104.72 11.6733 104.325 11.332C103.93 10.9906 103.333 10.82 102.533 10.82H99.2691L100.421 9.58796V15.94ZM113.579 13.22H118.971V15.236H113.579V13.22ZM113.771 17.828H119.867V19.908H111.195V8.70796H119.659V10.788H113.771V17.828ZM127.209 20.1C126.313 20.1 125.454 19.9826 124.633 19.748C123.812 19.5026 123.15 19.188 122.649 18.804L123.529 16.852C124.009 17.1933 124.574 17.476 125.225 17.7C125.886 17.9133 126.553 18.02 127.225 18.02C127.737 18.02 128.148 17.972 128.457 17.876C128.777 17.7693 129.012 17.6253 129.161 17.444C129.31 17.2626 129.385 17.0546 129.385 16.82C129.385 16.5213 129.268 16.2866 129.033 16.116C128.798 15.9346 128.489 15.7906 128.105 15.684C127.721 15.5666 127.294 15.46 126.825 15.364C126.366 15.2573 125.902 15.1293 125.433 14.98C124.974 14.8306 124.553 14.6386 124.169 14.404C123.785 14.1693 123.47 13.86 123.225 13.476C122.99 13.092 122.873 12.6013 122.873 12.004C122.873 11.364 123.044 10.7826 123.385 10.26C123.737 9.72662 124.26 9.30529 124.953 8.99596C125.657 8.67596 126.537 8.51596 127.593 8.51596C128.297 8.51596 128.99 8.60129 129.673 8.77196C130.356 8.93196 130.958 9.17729 131.481 9.50796L130.681 11.476C130.158 11.1773 129.636 10.9586 129.113 10.82C128.59 10.6706 128.078 10.596 127.577 10.596C127.076 10.596 126.665 10.6546 126.345 10.772C126.025 10.8893 125.796 11.044 125.657 11.236C125.518 11.4173 125.449 11.6306 125.449 11.876C125.449 12.164 125.566 12.3986 125.801 12.58C126.036 12.7506 126.345 12.8893 126.729 12.996C127.113 13.1026 127.534 13.2093 127.993 13.316C128.462 13.4226 128.926 13.5453 129.385 13.684C129.854 13.8226 130.281 14.0093 130.665 14.244C131.049 14.4786 131.358 14.788 131.593 15.172C131.838 15.556 131.961 16.0413 131.961 16.628C131.961 17.2573 131.785 17.8333 131.433 18.356C131.081 18.8786 130.553 19.3 129.849 19.62C129.156 19.94 128.276 20.1 127.209 20.1ZM137.496 19.908V10.82H133.912V8.70796H143.672V10.82H140.088V19.908H137.496ZM155.182 13.22H160.574V15.236H155.182V13.22ZM155.374 17.828H161.47V19.908H152.798V8.70796H161.262V10.788H155.374V17.828ZM165.132 19.908V8.70796H167.276L173.884 16.772H172.844V8.70796H175.404V19.908H173.276L166.652 11.844H167.692V19.908H165.132ZM181.974 19.908V10.82H178.39V8.70796H188.15V10.82H184.566V19.908H181.974ZM193.529 13.22H198.921V15.236H193.529V13.22ZM193.721 17.828H199.817V19.908H191.145V8.70796H199.609V10.788H193.721V17.828ZM203.479 19.908V8.70796H208.327C209.33 8.70796 210.194 8.87329 210.919 9.20396C211.644 9.52396 212.204 9.98796 212.599 10.596C212.994 11.204 213.191 11.9293 213.191 12.772C213.191 13.604 212.994 14.324 212.599 14.932C212.204 15.5293 211.644 15.988 210.919 16.308C210.194 16.628 209.33 16.788 208.327 16.788H204.919L206.071 15.652V19.908H203.479ZM210.599 19.908L207.799 15.844H210.567L213.399 19.908H210.599ZM206.071 15.94L204.919 14.724H208.183C208.983 14.724 209.58 14.5533 209.975 14.212C210.37 13.86 210.567 13.38 210.567 12.772C210.567 12.1533 210.37 11.6733 209.975 11.332C209.58 10.9906 208.983 10.82 208.183 10.82H204.919L206.071 9.58796V15.94ZM216.845 19.908V8.70796H221.693C222.695 8.70796 223.559 8.87329 224.285 9.20396C225.01 9.52396 225.57 9.98796 225.965 10.596C226.359 11.204 226.557 11.9293 226.557 12.772C226.557 13.604 226.359 14.324 225.965 14.932C225.57 15.54 225.01 16.0093 224.285 16.34C223.559 16.66 222.695 16.82 221.693 16.82H218.285L219.437 15.652V19.908H216.845ZM219.437 15.94L218.285 14.708H221.549C222.349 14.708 222.946 14.5373 223.341 14.196C223.735 13.8546 223.933 13.38 223.933 12.772C223.933 12.1533 223.735 11.6733 223.341 11.332C222.946 10.9906 222.349 10.82 221.549 10.82H218.285L219.437 9.58796V15.94ZM230.007 19.908V8.70796H234.855C235.858 8.70796 236.722 8.87329 237.447 9.20396C238.173 9.52396 238.733 9.98796 239.127 10.596C239.522 11.204 239.719 11.9293 239.719 12.772C239.719 13.604 239.522 14.324 239.127 14.932C238.733 15.5293 238.173 15.988 237.447 16.308C236.722 16.628 235.858 16.788 234.855 16.788H231.447L232.599 15.652V19.908H230.007ZM237.127 19.908L234.327 15.844H237.095L239.927 19.908H237.127ZM232.599 15.94L231.447 14.724H234.711C235.511 14.724 236.109 14.5533 236.503 14.212C236.898 13.86 237.095 13.38 237.095 12.772C237.095 12.1533 236.898 11.6733 236.503 11.332C236.109 10.9906 235.511 10.82 234.711 10.82H231.447L232.599 9.58796V15.94ZM243.373 19.908V8.70796H245.965V19.908H243.373ZM253.903 20.1C253.007 20.1 252.148 19.9826 251.327 19.748C250.505 19.5026 249.844 19.188 249.343 18.804L250.223 16.852C250.703 17.1933 251.268 17.476 251.919 17.7C252.58 17.9133 253.247 18.02 253.919 18.02C254.431 18.02 254.841 17.972 255.151 17.876C255.471 17.7693 255.705 17.6253 255.855 17.444C256.004 17.2626 256.079 17.0546 256.079 16.82C256.079 16.5213 255.961 16.2866 255.727 16.116C255.492 15.9346 255.183 15.7906 254.799 15.684C254.415 15.5666 253.988 15.46 253.519 15.364C253.06 15.2573 252.596 15.1293 252.127 14.98C251.668 14.8306 251.247 14.6386 250.863 14.404C250.479 14.1693 250.164 13.86 249.919 13.476C249.684 13.092 249.567 12.6013 249.567 12.004C249.567 11.364 249.737 10.7826 250.079 10.26C250.431 9.72662 250.953 9.30529 251.647 8.99596C252.351 8.67596 253.231 8.51596 254.287 8.51596C254.991 8.51596 255.684 8.60129 256.367 8.77196C257.049 8.93196 257.652 9.17729 258.175 9.50796L257.375 11.476C256.852 11.1773 256.329 10.9586 255.807 10.82C255.284 10.6706 254.772 10.596 254.271 10.596C253.769 10.596 253.359 10.6546 253.039 10.772C252.719 10.8893 252.489 11.044 252.351 11.236C252.212 11.4173 252.143 11.6306 252.143 11.876C252.143 12.164 252.26 12.3986 252.495 12.58C252.729 12.7506 253.039 12.8893 253.423 12.996C253.807 13.1026 254.228 13.2093 254.687 13.316C255.156 13.4226 255.62 13.5453 256.079 13.684C256.548 13.8226 256.975 14.0093 257.359 14.244C257.743 14.4786 258.052 14.788 258.287 15.172C258.532 15.556 258.655 16.0413 258.655 16.628C258.655 17.2573 258.479 17.8333 258.127 18.356C257.775 18.8786 257.247 19.3 256.543 19.62C255.849 19.94 254.969 20.1 253.903 20.1ZM264.41 13.22H269.802V15.236H264.41V13.22ZM264.602 17.828H270.698V19.908H262.026V8.70796H270.49V10.788H264.602V17.828Z" fill="#4BABFF"/>
<path d="M60.7598 38.908V32.778H58.3598V31.908H64.1498V32.778H61.7498V38.908H60.7598ZM64.972 38.908V33.608H65.892V35.048L65.802 34.688C65.9487 34.3213 66.1953 34.0413 66.542 33.848C66.8887 33.6546 67.3153 33.558 67.822 33.558V34.488C67.782 34.4813 67.742 34.478 67.702 34.478C67.6687 34.478 67.6353 34.478 67.602 34.478C67.0887 34.478 66.682 34.6313 66.382 34.938C66.082 35.2446 65.932 35.688 65.932 36.268V38.908H64.972ZM71.9046 38.908V37.788L71.8546 37.578V35.668C71.8546 35.2613 71.7346 34.948 71.4946 34.728C71.2613 34.5013 70.9079 34.388 70.4346 34.388C70.1213 34.388 69.8146 34.4413 69.5146 34.548C69.2146 34.648 68.9613 34.7846 68.7546 34.958L68.3546 34.238C68.6279 34.018 68.9546 33.8513 69.3346 33.738C69.7213 33.618 70.1246 33.558 70.5446 33.558C71.2713 33.558 71.8313 33.7346 72.2246 34.088C72.6179 34.4413 72.8146 34.9813 72.8146 35.708V38.908H71.9046ZM70.1646 38.968C69.7713 38.968 69.4246 38.9013 69.1246 38.768C68.8313 38.6346 68.6046 38.4513 68.4446 38.218C68.2846 37.978 68.2046 37.708 68.2046 37.408C68.2046 37.1213 68.2713 36.8613 68.4046 36.628C68.5446 36.3946 68.7679 36.208 69.0746 36.068C69.3879 35.928 69.8079 35.858 70.3346 35.858H72.0146V36.548H70.3746C69.8946 36.548 69.5713 36.628 69.4046 36.788C69.2379 36.948 69.1546 37.1413 69.1546 37.368C69.1546 37.628 69.2579 37.838 69.4646 37.998C69.6713 38.1513 69.9579 38.228 70.3246 38.228C70.6846 38.228 70.9979 38.148 71.2646 37.988C71.5379 37.828 71.7346 37.5946 71.8546 37.288L72.0446 37.948C71.9179 38.2613 71.6946 38.5113 71.3746 38.698C71.0546 38.878 70.6513 38.968 70.1646 38.968ZM77.4212 33.558C77.8545 33.558 78.2345 33.6413 78.5612 33.808C78.8945 33.9746 79.1545 34.228 79.3412 34.568C79.5278 34.908 79.6212 35.338 79.6212 35.858V38.908H78.6612V35.968C78.6612 35.4546 78.5345 35.068 78.2812 34.808C78.0345 34.548 77.6845 34.418 77.2312 34.418C76.8912 34.418 76.5945 34.4846 76.3412 34.618C76.0878 34.7513 75.8912 34.948 75.7512 35.208C75.6178 35.468 75.5512 35.7913 75.5512 36.178V38.908H74.5912V33.608H75.5112V35.038L75.3612 34.658C75.5345 34.3113 75.8012 34.0413 76.1612 33.848C76.5212 33.6546 76.9412 33.558 77.4212 33.558ZM82.9178 38.968C82.4778 38.968 82.0578 38.908 81.6578 38.788C81.2645 38.668 80.9545 38.5213 80.7278 38.348L81.1278 37.588C81.3545 37.7413 81.6345 37.8713 81.9678 37.978C82.3011 38.0846 82.6411 38.138 82.9878 38.138C83.4345 38.138 83.7545 38.0746 83.9478 37.948C84.1478 37.8213 84.2478 37.6446 84.2478 37.418C84.2478 37.2513 84.1878 37.1213 84.0678 37.028C83.9478 36.9346 83.7878 36.8646 83.5878 36.818C83.3945 36.7713 83.1778 36.7313 82.9378 36.698C82.6978 36.658 82.4578 36.6113 82.2178 36.558C81.9778 36.498 81.7578 36.418 81.5578 36.318C81.3578 36.2113 81.1978 36.068 81.0778 35.888C80.9578 35.7013 80.8978 35.4546 80.8978 35.148C80.8978 34.828 80.9878 34.548 81.1678 34.308C81.3478 34.068 81.6011 33.8846 81.9278 33.758C82.2611 33.6246 82.6545 33.558 83.1078 33.558C83.4545 33.558 83.8045 33.6013 84.1578 33.688C84.5178 33.768 84.8111 33.8846 85.0378 34.038L84.6278 34.798C84.3878 34.638 84.1378 34.528 83.8778 34.468C83.6178 34.408 83.3578 34.378 83.0978 34.378C82.6778 34.378 82.3645 34.448 82.1578 34.588C81.9511 34.7213 81.8478 34.8946 81.8478 35.108C81.8478 35.288 81.9078 35.428 82.0278 35.528C82.1545 35.6213 82.3145 35.6946 82.5078 35.748C82.7078 35.8013 82.9278 35.848 83.1678 35.888C83.4078 35.9213 83.6478 35.968 83.8878 36.028C84.1278 36.0813 84.3445 36.158 84.5378 36.258C84.7378 36.358 84.8978 36.498 85.0178 36.678C85.1445 36.858 85.2078 37.098 85.2078 37.398C85.2078 37.718 85.1145 37.9946 84.9278 38.228C84.7411 38.4613 84.4778 38.6446 84.1378 38.778C83.7978 38.9046 83.3911 38.968 82.9178 38.968ZM86.5476 38.908V33.138C86.5476 32.618 86.6976 32.2046 86.9976 31.898C87.3042 31.5846 87.7376 31.428 88.2976 31.428C88.5042 31.428 88.7009 31.4546 88.8876 31.508C89.0809 31.5546 89.2442 31.6313 89.3776 31.738L89.0876 32.468C88.9876 32.388 88.8742 32.328 88.7476 32.288C88.6209 32.2413 88.4876 32.218 88.3476 32.218C88.0676 32.218 87.8542 32.298 87.7076 32.458C87.5609 32.6113 87.4876 32.8413 87.4876 33.148V33.858L87.5076 34.298V38.908H86.5476ZM85.6476 34.398V33.608H89.0276V34.398H85.6476ZM92.1248 38.968C91.5915 38.968 91.1182 38.8513 90.7048 38.618C90.2915 38.3846 89.9648 38.0646 89.7248 37.658C89.4848 37.2446 89.3648 36.778 89.3648 36.258C89.3648 35.7313 89.4848 35.2646 89.7248 34.858C89.9648 34.4513 90.2915 34.1346 90.7048 33.908C91.1182 33.6746 91.5915 33.558 92.1248 33.558C92.6515 33.558 93.1215 33.6746 93.5348 33.908C93.9548 34.1346 94.2815 34.4513 94.5148 34.858C94.7548 35.258 94.8748 35.7246 94.8748 36.258C94.8748 36.7846 94.7548 37.2513 94.5148 37.658C94.2815 38.0646 93.9548 38.3846 93.5348 38.618C93.1215 38.8513 92.6515 38.968 92.1248 38.968ZM92.1248 38.128C92.4648 38.128 92.7682 38.0513 93.0348 37.898C93.3082 37.7446 93.5215 37.528 93.6748 37.248C93.8282 36.9613 93.9048 36.6313 93.9048 36.258C93.9048 35.878 93.8282 35.5513 93.6748 35.278C93.5215 34.998 93.3082 34.7813 93.0348 34.628C92.7682 34.4746 92.4648 34.398 92.1248 34.398C91.7848 34.398 91.4815 34.4746 91.2148 34.628C90.9482 34.7813 90.7348 34.998 90.5748 35.278C90.4148 35.5513 90.3348 35.878 90.3348 36.258C90.3348 36.6313 90.4148 36.9613 90.5748 37.248C90.7348 37.528 90.9482 37.7446 91.2148 37.898C91.4815 38.0513 91.7848 38.128 92.1248 38.128ZM96.2025 38.908V33.608H97.1225V35.048L97.0325 34.688C97.1791 34.3213 97.4258 34.0413 97.7725 33.848C98.1191 33.6546 98.5458 33.558 99.0525 33.558V34.488C99.0125 34.4813 98.9725 34.478 98.9325 34.478C98.8991 34.478 98.8658 34.478 98.8325 34.478C98.3191 34.478 97.9125 34.6313 97.6125 34.938C97.3125 35.2446 97.1625 35.688 97.1625 36.268V38.908H96.2025ZM106.866 33.558C107.292 33.558 107.669 33.6413 107.996 33.808C108.322 33.9746 108.576 34.228 108.756 34.568C108.942 34.908 109.036 35.338 109.036 35.858V38.908H108.076V35.968C108.076 35.4546 107.956 35.068 107.716 34.808C107.476 34.548 107.139 34.418 106.706 34.418C106.386 34.418 106.106 34.4846 105.866 34.618C105.626 34.7513 105.439 34.948 105.306 35.208C105.179 35.468 105.116 35.7913 105.116 36.178V38.908H104.156V35.968C104.156 35.4546 104.036 35.068 103.796 34.808C103.562 34.548 103.226 34.418 102.786 34.418C102.472 34.418 102.196 34.4846 101.956 34.618C101.716 34.7513 101.529 34.948 101.396 35.208C101.262 35.468 101.196 35.7913 101.196 36.178V38.908H100.236V33.608H101.156V35.018L101.006 34.658C101.172 34.3113 101.429 34.0413 101.776 33.848C102.122 33.6546 102.526 33.558 102.986 33.558C103.492 33.558 103.929 33.6846 104.296 33.938C104.662 34.1846 104.902 34.5613 105.016 35.068L104.626 34.908C104.786 34.5013 105.066 34.1746 105.466 33.928C105.866 33.6813 106.332 33.558 106.866 33.558ZM110.802 38.908V33.608H111.762V38.908H110.802ZM111.282 32.588C111.095 32.588 110.939 32.528 110.812 32.408C110.692 32.288 110.632 32.1413 110.632 31.968C110.632 31.788 110.692 31.638 110.812 31.518C110.939 31.398 111.095 31.338 111.282 31.338C111.469 31.338 111.622 31.398 111.742 31.518C111.869 31.6313 111.932 31.7746 111.932 31.948C111.932 32.128 111.872 32.2813 111.752 32.408C111.632 32.528 111.475 32.588 111.282 32.588ZM116.425 33.558C116.858 33.558 117.238 33.6413 117.565 33.808C117.898 33.9746 118.158 34.228 118.345 34.568C118.532 34.908 118.625 35.338 118.625 35.858V38.908H117.665V35.968C117.665 35.4546 117.538 35.068 117.285 34.808C117.038 34.548 116.688 34.418 116.235 34.418C115.895 34.418 115.598 34.4846 115.345 34.618C115.092 34.7513 114.895 34.948 114.755 35.208C114.622 35.468 114.555 35.7913 114.555 36.178V38.908H113.595V33.608H114.515V35.038L114.365 34.658C114.538 34.3113 114.805 34.0413 115.165 33.848C115.525 33.6546 115.945 33.558 116.425 33.558ZM122.722 40.908C122.235 40.908 121.762 40.838 121.302 40.698C120.848 40.5646 120.478 40.3713 120.192 40.118L120.652 39.378C120.898 39.5913 121.202 39.758 121.562 39.878C121.922 40.0046 122.298 40.068 122.692 40.068C123.318 40.068 123.778 39.9213 124.072 39.628C124.365 39.3346 124.512 38.888 124.512 38.288V37.168L124.612 36.118L124.562 35.058V33.608H125.472V38.188C125.472 39.1213 125.238 39.808 124.772 40.248C124.305 40.688 123.622 40.908 122.722 40.908ZM122.602 38.688C122.088 38.688 121.628 38.5813 121.222 38.368C120.822 38.148 120.502 37.8446 120.262 37.458C120.028 37.0713 119.912 36.6246 119.912 36.118C119.912 35.6046 120.028 35.158 120.262 34.778C120.502 34.3913 120.822 34.0913 121.222 33.878C121.628 33.6646 122.088 33.558 122.602 33.558C123.055 33.558 123.468 33.6513 123.842 33.838C124.215 34.018 124.512 34.298 124.732 34.678C124.958 35.058 125.072 35.538 125.072 36.118C125.072 36.6913 124.958 37.168 124.732 37.548C124.512 37.928 124.215 38.2146 123.842 38.408C123.468 38.5946 123.055 38.688 122.602 38.688ZM122.712 37.848C123.065 37.848 123.378 37.7746 123.652 37.628C123.925 37.4813 124.138 37.278 124.292 37.018C124.452 36.758 124.532 36.458 124.532 36.118C124.532 35.778 124.452 35.478 124.292 35.218C124.138 34.958 123.925 34.758 123.652 34.618C123.378 34.4713 123.065 34.398 122.712 34.398C122.358 34.398 122.042 34.4713 121.762 34.618C121.488 34.758 121.272 34.958 121.112 35.218C120.958 35.478 120.882 35.778 120.882 36.118C120.882 36.458 120.958 36.758 121.112 37.018C121.272 37.278 121.488 37.4813 121.762 37.628C122.042 37.7746 122.358 37.848 122.712 37.848ZM131.512 38.968C131.072 38.968 130.652 38.908 130.252 38.788C129.858 38.668 129.548 38.5213 129.322 38.348L129.722 37.588C129.948 37.7413 130.228 37.8713 130.562 37.978C130.895 38.0846 131.235 38.138 131.582 38.138C132.028 38.138 132.348 38.0746 132.542 37.948C132.742 37.8213 132.842 37.6446 132.842 37.418C132.842 37.2513 132.782 37.1213 132.662 37.028C132.542 36.9346 132.382 36.8646 132.182 36.818C131.988 36.7713 131.772 36.7313 131.532 36.698C131.292 36.658 131.052 36.6113 130.812 36.558C130.572 36.498 130.352 36.418 130.152 36.318C129.952 36.2113 129.792 36.068 129.672 35.888C129.552 35.7013 129.492 35.4546 129.492 35.148C129.492 34.828 129.582 34.548 129.762 34.308C129.942 34.068 130.195 33.8846 130.522 33.758C130.855 33.6246 131.248 33.558 131.702 33.558C132.048 33.558 132.398 33.6013 132.752 33.688C133.112 33.768 133.405 33.8846 133.632 34.038L133.222 34.798C132.982 34.638 132.732 34.528 132.472 34.468C132.212 34.408 131.952 34.378 131.692 34.378C131.272 34.378 130.958 34.448 130.752 34.588C130.545 34.7213 130.442 34.8946 130.442 35.108C130.442 35.288 130.502 35.428 130.622 35.528C130.748 35.6213 130.908 35.6946 131.102 35.748C131.302 35.8013 131.522 35.848 131.762 35.888C132.002 35.9213 132.242 35.968 132.482 36.028C132.722 36.0813 132.938 36.158 133.132 36.258C133.332 36.358 133.492 36.498 133.612 36.678C133.738 36.858 133.802 37.098 133.802 37.398C133.802 37.718 133.708 37.9946 133.522 38.228C133.335 38.4613 133.072 38.6446 132.732 38.778C132.392 38.9046 131.985 38.968 131.512 38.968ZM137.811 38.968C137.371 38.968 136.968 38.868 136.601 38.668C136.241 38.4613 135.951 38.158 135.731 37.758C135.518 37.358 135.411 36.858 135.411 36.258C135.411 35.658 135.515 35.158 135.721 34.758C135.935 34.358 136.221 34.058 136.581 33.858C136.948 33.658 137.358 33.558 137.811 33.558C138.331 33.558 138.791 33.6713 139.191 33.898C139.591 34.1246 139.908 34.4413 140.141 34.848C140.375 35.248 140.491 35.718 140.491 36.258C140.491 36.798 140.375 37.2713 140.141 37.678C139.908 38.0846 139.591 38.4013 139.191 38.628C138.791 38.8546 138.331 38.968 137.811 38.968ZM135.001 40.848V33.608H135.921V35.038L135.861 36.268L135.961 37.498V40.848H135.001ZM137.731 38.128C138.071 38.128 138.375 38.0513 138.641 37.898C138.915 37.7446 139.128 37.528 139.281 37.248C139.441 36.9613 139.521 36.6313 139.521 36.258C139.521 35.878 139.441 35.5513 139.281 35.278C139.128 34.998 138.915 34.7813 138.641 34.628C138.375 34.4746 138.071 34.398 137.731 34.398C137.398 34.398 137.095 34.4746 136.821 34.628C136.555 34.7813 136.341 34.998 136.181 35.278C136.028 35.5513 135.951 35.878 135.951 36.258C135.951 36.6313 136.028 36.9613 136.181 37.248C136.341 37.528 136.555 37.7446 136.821 37.898C137.095 38.0513 137.398 38.128 137.731 38.128ZM145.059 38.908V37.788L145.009 37.578V35.668C145.009 35.2613 144.889 34.948 144.649 34.728C144.416 34.5013 144.062 34.388 143.589 34.388C143.276 34.388 142.969 34.4413 142.669 34.548C142.369 34.648 142.116 34.7846 141.909 34.958L141.509 34.238C141.782 34.018 142.109 33.8513 142.489 33.738C142.876 33.618 143.279 33.558 143.699 33.558C144.426 33.558 144.986 33.7346 145.379 34.088C145.772 34.4413 145.969 34.9813 145.969 35.708V38.908H145.059ZM143.319 38.968C142.926 38.968 142.579 38.9013 142.279 38.768C141.986 38.6346 141.759 38.4513 141.599 38.218C141.439 37.978 141.359 37.708 141.359 37.408C141.359 37.1213 141.426 36.8613 141.559 36.628C141.699 36.3946 141.922 36.208 142.229 36.068C142.542 35.928 142.962 35.858 143.489 35.858H145.169V36.548H143.529C143.049 36.548 142.726 36.628 142.559 36.788C142.392 36.948 142.309 37.1413 142.309 37.368C142.309 37.628 142.412 37.838 142.619 37.998C142.826 38.1513 143.112 38.228 143.479 38.228C143.839 38.228 144.152 38.148 144.419 37.988C144.692 37.828 144.889 37.5946 145.009 37.288L145.199 37.948C145.072 38.2613 144.849 38.5113 144.529 38.698C144.209 38.878 143.806 38.968 143.319 38.968ZM150.055 38.968C149.515 38.968 149.032 38.8513 148.605 38.618C148.185 38.3846 147.855 38.0646 147.615 37.658C147.375 37.2513 147.255 36.7846 147.255 36.258C147.255 35.7313 147.375 35.2646 147.615 34.858C147.855 34.4513 148.185 34.1346 148.605 33.908C149.032 33.6746 149.515 33.558 150.055 33.558C150.535 33.558 150.962 33.6546 151.335 33.848C151.715 34.0346 152.009 34.3146 152.215 34.688L151.485 35.158C151.312 34.898 151.099 34.708 150.845 34.588C150.599 34.4613 150.332 34.398 150.045 34.398C149.699 34.398 149.389 34.4746 149.115 34.628C148.842 34.7813 148.625 34.998 148.465 35.278C148.305 35.5513 148.225 35.878 148.225 36.258C148.225 36.638 148.305 36.968 148.465 37.248C148.625 37.528 148.842 37.7446 149.115 37.898C149.389 38.0513 149.699 38.128 150.045 38.128C150.332 38.128 150.599 38.068 150.845 37.948C151.099 37.8213 151.312 37.628 151.485 37.368L152.215 37.828C152.009 38.1946 151.715 38.478 151.335 38.678C150.962 38.8713 150.535 38.968 150.055 38.968ZM155.74 38.968C155.174 38.968 154.674 38.8513 154.24 38.618C153.814 38.3846 153.48 38.0646 153.24 37.658C153.007 37.2513 152.89 36.7846 152.89 36.258C152.89 35.7313 153.004 35.2646 153.23 34.858C153.464 34.4513 153.78 34.1346 154.18 33.908C154.587 33.6746 155.044 33.558 155.55 33.558C156.064 33.558 156.517 33.6713 156.91 33.898C157.304 34.1246 157.61 34.4446 157.83 34.858C158.057 35.2646 158.17 35.7413 158.17 36.288C158.17 36.328 158.167 36.3746 158.16 36.428C158.16 36.4813 158.157 36.5313 158.15 36.578H153.64V35.888H157.65L157.26 36.128C157.267 35.788 157.197 35.4846 157.05 35.218C156.904 34.9513 156.7 34.7446 156.44 34.598C156.187 34.4446 155.89 34.368 155.55 34.368C155.217 34.368 154.92 34.4446 154.66 34.598C154.4 34.7446 154.197 34.9546 154.05 35.228C153.904 35.4946 153.83 35.8013 153.83 36.148V36.308C153.83 36.6613 153.91 36.978 154.07 37.258C154.237 37.5313 154.467 37.7446 154.76 37.898C155.054 38.0513 155.39 38.128 155.77 38.128C156.084 38.128 156.367 38.0746 156.62 37.968C156.88 37.8613 157.107 37.7013 157.3 37.488L157.83 38.108C157.59 38.388 157.29 38.6013 156.93 38.748C156.577 38.8946 156.18 38.968 155.74 38.968ZM161.023 38.968C160.583 38.968 160.163 38.908 159.763 38.788C159.37 38.668 159.06 38.5213 158.833 38.348L159.233 37.588C159.46 37.7413 159.74 37.8713 160.073 37.978C160.407 38.0846 160.747 38.138 161.093 38.138C161.54 38.138 161.86 38.0746 162.053 37.948C162.253 37.8213 162.353 37.6446 162.353 37.418C162.353 37.2513 162.293 37.1213 162.173 37.028C162.053 36.9346 161.893 36.8646 161.693 36.818C161.5 36.7713 161.283 36.7313 161.043 36.698C160.803 36.658 160.563 36.6113 160.323 36.558C160.083 36.498 159.863 36.418 159.663 36.318C159.463 36.2113 159.303 36.068 159.183 35.888C159.063 35.7013 159.003 35.4546 159.003 35.148C159.003 34.828 159.093 34.548 159.273 34.308C159.453 34.068 159.707 33.8846 160.033 33.758C160.367 33.6246 160.76 33.558 161.213 33.558C161.56 33.558 161.91 33.6013 162.263 33.688C162.623 33.768 162.917 33.8846 163.143 34.038L162.733 34.798C162.493 34.638 162.243 34.528 161.983 34.468C161.723 34.408 161.463 34.378 161.203 34.378C160.783 34.378 160.47 34.448 160.263 34.588C160.057 34.7213 159.953 34.8946 159.953 35.108C159.953 35.288 160.013 35.428 160.133 35.528C160.26 35.6213 160.42 35.6946 160.613 35.748C160.813 35.8013 161.033 35.848 161.273 35.888C161.513 35.9213 161.753 35.968 161.993 36.028C162.233 36.0813 162.45 36.158 162.643 36.258C162.843 36.358 163.003 36.498 163.123 36.678C163.25 36.858 163.313 37.098 163.313 37.398C163.313 37.718 163.22 37.9946 163.033 38.228C162.847 38.4613 162.583 38.6446 162.243 38.778C161.903 38.9046 161.497 38.968 161.023 38.968ZM164.133 40.388L164.633 38.368L164.763 38.948C164.57 38.948 164.406 38.888 164.273 38.768C164.146 38.648 164.083 38.4846 164.083 38.278C164.083 38.078 164.146 37.9146 164.273 37.788C164.406 37.6613 164.566 37.598 164.753 37.598C164.946 37.598 165.103 37.6646 165.223 37.798C165.343 37.9246 165.403 38.0846 165.403 38.278C165.403 38.3446 165.396 38.4113 165.383 38.478C165.376 38.538 165.36 38.6113 165.333 38.698C165.313 38.778 165.28 38.878 165.233 38.998L164.763 40.388H164.133ZM171.284 38.968C170.751 38.968 170.338 38.8246 170.044 38.538C169.751 38.2513 169.604 37.8413 169.604 37.308V32.448H170.564V37.268C170.564 37.5546 170.634 37.7746 170.774 37.928C170.921 38.0813 171.128 38.158 171.394 38.158C171.694 38.158 171.944 38.0746 172.144 37.908L172.444 38.598C172.298 38.7246 172.121 38.818 171.914 38.878C171.714 38.938 171.504 38.968 171.284 38.968ZM168.704 34.398V33.608H172.084V34.398H168.704ZM173.605 38.908V33.608H174.525V35.048L174.435 34.688C174.581 34.3213 174.828 34.0413 175.175 33.848C175.521 33.6546 175.948 33.558 176.455 33.558V34.488C176.415 34.4813 176.375 34.478 176.335 34.478C176.301 34.478 176.268 34.478 176.235 34.478C175.721 34.478 175.315 34.6313 175.015 34.938C174.715 35.2446 174.565 35.688 174.565 36.268V38.908H173.605ZM180.537 38.908V37.788L180.487 37.578V35.668C180.487 35.2613 180.367 34.948 180.127 34.728C179.894 34.5013 179.541 34.388 179.067 34.388C178.754 34.388 178.447 34.4413 178.147 34.548C177.847 34.648 177.594 34.7846 177.387 34.958L176.987 34.238C177.261 34.018 177.587 33.8513 177.967 33.738C178.354 33.618 178.757 33.558 179.177 33.558C179.904 33.558 180.464 33.7346 180.857 34.088C181.251 34.4413 181.447 34.9813 181.447 35.708V38.908H180.537ZM178.797 38.968C178.404 38.968 178.057 38.9013 177.757 38.768C177.464 38.6346 177.237 38.4513 177.077 38.218C176.917 37.978 176.837 37.708 176.837 37.408C176.837 37.1213 176.904 36.8613 177.037 36.628C177.177 36.3946 177.401 36.208 177.707 36.068C178.021 35.928 178.441 35.858 178.967 35.858H180.647V36.548H179.007C178.527 36.548 178.204 36.628 178.037 36.788C177.871 36.948 177.787 37.1413 177.787 37.368C177.787 37.628 177.891 37.838 178.097 37.998C178.304 38.1513 178.591 38.228 178.957 38.228C179.317 38.228 179.631 38.148 179.897 37.988C180.171 37.828 180.367 37.5946 180.487 37.288L180.677 37.948C180.551 38.2613 180.327 38.5113 180.007 38.698C179.687 38.878 179.284 38.968 178.797 38.968ZM186.054 33.558C186.487 33.558 186.867 33.6413 187.194 33.808C187.527 33.9746 187.787 34.228 187.974 34.568C188.161 34.908 188.254 35.338 188.254 35.858V38.908H187.294V35.968C187.294 35.4546 187.167 35.068 186.914 34.808C186.667 34.548 186.317 34.418 185.864 34.418C185.524 34.418 185.227 34.4846 184.974 34.618C184.721 34.7513 184.524 34.948 184.384 35.208C184.251 35.468 184.184 35.7913 184.184 36.178V38.908H183.224V33.608H184.144V35.038L183.994 34.658C184.167 34.3113 184.434 34.0413 184.794 33.848C185.154 33.6546 185.574 33.558 186.054 33.558ZM191.551 38.968C191.111 38.968 190.691 38.908 190.291 38.788C189.897 38.668 189.587 38.5213 189.361 38.348L189.761 37.588C189.987 37.7413 190.267 37.8713 190.601 37.978C190.934 38.0846 191.274 38.138 191.621 38.138C192.067 38.138 192.387 38.0746 192.581 37.948C192.781 37.8213 192.881 37.6446 192.881 37.418C192.881 37.2513 192.821 37.1213 192.701 37.028C192.581 36.9346 192.421 36.8646 192.221 36.818C192.027 36.7713 191.811 36.7313 191.571 36.698C191.331 36.658 191.091 36.6113 190.851 36.558C190.611 36.498 190.391 36.418 190.191 36.318C189.991 36.2113 189.831 36.068 189.711 35.888C189.591 35.7013 189.531 35.4546 189.531 35.148C189.531 34.828 189.621 34.548 189.801 34.308C189.981 34.068 190.234 33.8846 190.561 33.758C190.894 33.6246 191.287 33.558 191.741 33.558C192.087 33.558 192.437 33.6013 192.791 33.688C193.151 33.768 193.444 33.8846 193.671 34.038L193.261 34.798C193.021 34.638 192.771 34.528 192.511 34.468C192.251 34.408 191.991 34.378 191.731 34.378C191.311 34.378 190.997 34.448 190.791 34.588C190.584 34.7213 190.481 34.8946 190.481 35.108C190.481 35.288 190.541 35.428 190.661 35.528C190.787 35.6213 190.947 35.6946 191.141 35.748C191.341 35.8013 191.561 35.848 191.801 35.888C192.041 35.9213 192.281 35.968 192.521 36.028C192.761 36.0813 192.977 36.158 193.171 36.258C193.371 36.358 193.531 36.498 193.651 36.678C193.777 36.858 193.841 37.098 193.841 37.398C193.841 37.718 193.747 37.9946 193.561 38.228C193.374 38.4613 193.111 38.6446 192.771 38.778C192.431 38.9046 192.024 38.968 191.551 38.968ZM195.18 38.908V33.138C195.18 32.618 195.33 32.2046 195.63 31.898C195.937 31.5846 196.37 31.428 196.93 31.428C197.137 31.428 197.334 31.4546 197.52 31.508C197.714 31.5546 197.877 31.6313 198.01 31.738L197.72 32.468C197.62 32.388 197.507 32.328 197.38 32.288C197.254 32.2413 197.12 32.218 196.98 32.218C196.7 32.218 196.487 32.298 196.34 32.458C196.194 32.6113 196.12 32.8413 196.12 33.148V33.858L196.14 34.298V38.908H195.18ZM194.28 34.398V33.608H197.66V34.398H194.28ZM200.758 38.968C200.224 38.968 199.751 38.8513 199.338 38.618C198.924 38.3846 198.598 38.0646 198.358 37.658C198.118 37.2446 197.998 36.778 197.998 36.258C197.998 35.7313 198.118 35.2646 198.358 34.858C198.598 34.4513 198.924 34.1346 199.338 33.908C199.751 33.6746 200.224 33.558 200.758 33.558C201.284 33.558 201.754 33.6746 202.168 33.908C202.588 34.1346 202.914 34.4513 203.148 34.858C203.388 35.258 203.508 35.7246 203.508 36.258C203.508 36.7846 203.388 37.2513 203.148 37.658C202.914 38.0646 202.588 38.3846 202.168 38.618C201.754 38.8513 201.284 38.968 200.758 38.968ZM200.758 38.128C201.098 38.128 201.401 38.0513 201.668 37.898C201.941 37.7446 202.154 37.528 202.308 37.248C202.461 36.9613 202.538 36.6313 202.538 36.258C202.538 35.878 202.461 35.5513 202.308 35.278C202.154 34.998 201.941 34.7813 201.668 34.628C201.401 34.4746 201.098 34.398 200.758 34.398C200.418 34.398 200.114 34.4746 199.848 34.628C199.581 34.7813 199.368 34.998 199.208 35.278C199.048 35.5513 198.968 35.878 198.968 36.258C198.968 36.6313 199.048 36.9613 199.208 37.248C199.368 37.528 199.581 37.7446 199.848 37.898C200.114 38.0513 200.418 38.128 200.758 38.128ZM204.835 38.908V33.608H205.755V35.048L205.665 34.688C205.812 34.3213 206.059 34.0413 206.405 33.848C206.752 33.6546 207.179 33.558 207.685 33.558V34.488C207.645 34.4813 207.605 34.478 207.565 34.478C207.532 34.478 207.499 34.478 207.465 34.478C206.952 34.478 206.545 34.6313 206.245 34.938C205.945 35.2446 205.795 35.688 205.795 36.268V38.908H204.835ZM215.498 33.558C215.925 33.558 216.302 33.6413 216.628 33.808C216.955 33.9746 217.208 34.228 217.388 34.568C217.575 34.908 217.668 35.338 217.668 35.858V38.908H216.708V35.968C216.708 35.4546 216.588 35.068 216.348 34.808C216.108 34.548 215.772 34.418 215.338 34.418C215.018 34.418 214.738 34.4846 214.498 34.618C214.258 34.7513 214.072 34.948 213.938 35.208C213.812 35.468 213.748 35.7913 213.748 36.178V38.908H212.788V35.968C212.788 35.4546 212.668 35.068 212.428 34.808C212.195 34.548 211.858 34.418 211.418 34.418C211.105 34.418 210.828 34.4846 210.588 34.618C210.348 34.7513 210.162 34.948 210.028 35.208C209.895 35.468 209.828 35.7913 209.828 36.178V38.908H208.868V33.608H209.788V35.018L209.638 34.658C209.805 34.3113 210.062 34.0413 210.408 33.848C210.755 33.6546 211.158 33.558 211.618 33.558C212.125 33.558 212.562 33.6846 212.928 33.938C213.295 34.1846 213.535 34.5613 213.648 35.068L213.258 34.908C213.418 34.5013 213.698 34.1746 214.098 33.928C214.498 33.6813 214.965 33.558 215.498 33.558ZM219.435 38.908V33.608H220.395V38.908H219.435ZM219.915 32.588C219.728 32.588 219.572 32.528 219.445 32.408C219.325 32.288 219.265 32.1413 219.265 31.968C219.265 31.788 219.325 31.638 219.445 31.518C219.572 31.398 219.728 31.338 219.915 31.338C220.102 31.338 220.255 31.398 220.375 31.518C220.502 31.6313 220.565 31.7746 220.565 31.948C220.565 32.128 220.505 32.2813 220.385 32.408C220.265 32.528 220.108 32.588 219.915 32.588ZM225.058 33.558C225.491 33.558 225.871 33.6413 226.198 33.808C226.531 33.9746 226.791 34.228 226.978 34.568C227.165 34.908 227.258 35.338 227.258 35.858V38.908H226.298V35.968C226.298 35.4546 226.171 35.068 225.918 34.808C225.671 34.548 225.321 34.418 224.868 34.418C224.528 34.418 224.231 34.4846 223.978 34.618C223.725 34.7513 223.528 34.948 223.388 35.208C223.255 35.468 223.188 35.7913 223.188 36.178V38.908H222.228V33.608H223.148V35.038L222.998 34.658C223.171 34.3113 223.438 34.0413 223.798 33.848C224.158 33.6546 224.578 33.558 225.058 33.558ZM231.355 40.908C230.868 40.908 230.395 40.838 229.935 40.698C229.481 40.5646 229.111 40.3713 228.825 40.118L229.285 39.378C229.531 39.5913 229.835 39.758 230.195 39.878C230.555 40.0046 230.931 40.068 231.325 40.068C231.951 40.068 232.411 39.9213 232.705 39.628C232.998 39.3346 233.145 38.888 233.145 38.288V37.168L233.245 36.118L233.195 35.058V33.608H234.105V38.188C234.105 39.1213 233.871 39.808 233.405 40.248C232.938 40.688 232.255 40.908 231.355 40.908ZM231.235 38.688C230.721 38.688 230.261 38.5813 229.855 38.368C229.455 38.148 229.135 37.8446 228.895 37.458C228.661 37.0713 228.545 36.6246 228.545 36.118C228.545 35.6046 228.661 35.158 228.895 34.778C229.135 34.3913 229.455 34.0913 229.855 33.878C230.261 33.6646 230.721 33.558 231.235 33.558C231.688 33.558 232.101 33.6513 232.475 33.838C232.848 34.018 233.145 34.298 233.365 34.678C233.591 35.058 233.705 35.538 233.705 36.118C233.705 36.6913 233.591 37.168 233.365 37.548C233.145 37.928 232.848 38.2146 232.475 38.408C232.101 38.5946 231.688 38.688 231.235 38.688ZM231.345 37.848C231.698 37.848 232.011 37.7746 232.285 37.628C232.558 37.4813 232.771 37.278 232.925 37.018C233.085 36.758 233.165 36.458 233.165 36.118C233.165 35.778 233.085 35.478 232.925 35.218C232.771 34.958 232.558 34.758 232.285 34.618C232.011 34.4713 231.698 34.398 231.345 34.398C230.991 34.398 230.675 34.4713 230.395 34.618C230.121 34.758 229.905 34.958 229.745 35.218C229.591 35.478 229.515 35.778 229.515 36.118C229.515 36.458 229.591 36.758 229.745 37.018C229.905 37.278 230.121 37.4813 230.395 37.628C230.675 37.7746 230.991 37.848 231.345 37.848ZM238.624 38.908V31.488H239.584V38.908H238.624ZM241.417 38.908V33.608H242.377V38.908H241.417ZM241.897 32.588C241.711 32.588 241.554 32.528 241.427 32.408C241.307 32.288 241.247 32.1413 241.247 31.968C241.247 31.788 241.307 31.638 241.427 31.518C241.554 31.398 241.711 31.338 241.897 31.338C242.084 31.338 242.237 31.398 242.357 31.518C242.484 31.6313 242.547 31.7746 242.547 31.948C242.547 32.128 242.487 32.2813 242.367 32.408C242.247 32.528 242.091 32.588 241.897 32.588ZM245.6 38.908L243.28 33.608H244.28L246.34 38.408H245.86L247.96 33.608H248.9L246.58 38.908H245.6ZM252.01 38.968C251.443 38.968 250.943 38.8513 250.51 38.618C250.083 38.3846 249.75 38.0646 249.51 37.658C249.276 37.2513 249.16 36.7846 249.16 36.258C249.16 35.7313 249.273 35.2646 249.5 34.858C249.733 34.4513 250.05 34.1346 250.45 33.908C250.856 33.6746 251.313 33.558 251.82 33.558C252.333 33.558 252.786 33.6713 253.18 33.898C253.573 34.1246 253.88 34.4446 254.1 34.858C254.326 35.2646 254.44 35.7413 254.44 36.288C254.44 36.328 254.436 36.3746 254.43 36.428C254.43 36.4813 254.426 36.5313 254.42 36.578H249.91V35.888H253.92L253.53 36.128C253.536 35.788 253.466 35.4846 253.32 35.218C253.173 34.9513 252.97 34.7446 252.71 34.598C252.456 34.4446 252.16 34.368 251.82 34.368C251.486 34.368 251.19 34.4446 250.93 34.598C250.67 34.7446 250.466 34.9546 250.32 35.228C250.173 35.4946 250.1 35.8013 250.1 36.148V36.308C250.1 36.6613 250.18 36.978 250.34 37.258C250.506 37.5313 250.736 37.7446 251.03 37.898C251.323 38.0513 251.66 38.128 252.04 38.128C252.353 38.128 252.636 38.0746 252.89 37.968C253.15 37.8613 253.376 37.7013 253.57 37.488L254.1 38.108C253.86 38.388 253.56 38.6013 253.2 38.748C252.846 38.8946 252.45 38.968 252.01 38.968ZM257.293 38.968C256.853 38.968 256.433 38.908 256.033 38.788C255.639 38.668 255.329 38.5213 255.103 38.348L255.503 37.588C255.729 37.7413 256.009 37.8713 256.343 37.978C256.676 38.0846 257.016 38.138 257.363 38.138C257.809 38.138 258.129 38.0746 258.323 37.948C258.523 37.8213 258.623 37.6446 258.623 37.418C258.623 37.2513 258.563 37.1213 258.443 37.028C258.323 36.9346 258.163 36.8646 257.963 36.818C257.769 36.7713 257.553 36.7313 257.313 36.698C257.073 36.658 256.833 36.6113 256.593 36.558C256.353 36.498 256.133 36.418 255.933 36.318C255.733 36.2113 255.573 36.068 255.453 35.888C255.333 35.7013 255.273 35.4546 255.273 35.148C255.273 34.828 255.363 34.548 255.543 34.308C255.723 34.068 255.976 33.8846 256.303 33.758C256.636 33.6246 257.029 33.558 257.483 33.558C257.829 33.558 258.179 33.6013 258.533 33.688C258.893 33.768 259.186 33.8846 259.413 34.038L259.003 34.798C258.763 34.638 258.513 34.528 258.253 34.468C257.993 34.408 257.733 34.378 257.473 34.378C257.053 34.378 256.739 34.448 256.533 34.588C256.326 34.7213 256.223 34.8946 256.223 35.108C256.223 35.288 256.283 35.428 256.403 35.528C256.529 35.6213 256.689 35.6946 256.883 35.748C257.083 35.8013 257.303 35.848 257.543 35.888C257.783 35.9213 258.023 35.968 258.263 36.028C258.503 36.0813 258.719 36.158 258.913 36.258C259.113 36.358 259.273 36.498 259.393 36.678C259.519 36.858 259.583 37.098 259.583 37.398C259.583 37.718 259.489 37.9946 259.303 38.228C259.116 38.4613 258.853 38.6446 258.513 38.778C258.173 38.9046 257.766 38.968 257.293 38.968Z" fill="#000080"/>
</svg>
